name C:\Users\Nicos\Documents\OpenSimProjects\SprintingProject\Study1\PredictiveResults\IC_pred_Sprinting_optimum_26-October-2023__22-16-26___HTD_Plus_4_p02_maxVel_01.mot
datacolumns 38
datarows 12
range 0.16051098 0.17305230
endheader
                time	/jointset/ground_pelvis/pelvis_tilt/value	/jointset/ground_pelvis/pelvis_list/value	/jointset/ground_pelvis/pelvis_rotation/value	/jointset/ground_pelvis/pelvis_tx/value	/jointset/ground_pelvis/pelvis_ty/value	/jointset/ground_pelvis/pelvis_tz/value	/jointset/hip_r/hip_flexion_r/value	/jointset/hip_r/hip_adduction_r/value	/jointset/hip_r/hip_rotation_r/value	/jointset/knee_r/knee_angle_r/value	/jointset/ankle_r/ankle_angle_r/value	/jointset/subtalar_r/subtalar_angle_r/value	/jointset/mtp_r/mtp_angle_r/value	/jointset/hip_l/hip_flexion_l/value	/jointset/hip_l/hip_adduction_l/value	/jointset/hip_l/hip_rotation_l/value	/jointset/knee_l/knee_angle_l/value	/jointset/ankle_l/ankle_angle_l/value	/jointset/subtalar_l/subtalar_angle_l/value	/jointset/mtp_l/mtp_angle_l/value	/jointset/back/lumbar_extension/value	/jointset/back/lumbar_bending/value	/jointset/back/lumbar_rotation/value	/jointset/acromial_r/arm_flex_r/value	/jointset/acromial_r/arm_add_r/value	/jointset/acromial_r/arm_rot_r/value	/jointset/elbow_r/elbow_flex_r/value	/jointset/radioulnar_r/pro_sup_r/value	/jointset/radius_hand_r/wrist_flex_r/value	/jointset/radius_hand_r/wrist_dev_r/value	/jointset/acromial_l/arm_flex_l/value	/jointset/acromial_l/arm_add_l/value	/jointset/acromial_l/arm_rot_l/value	/jointset/elbow_l/elbow_flex_l/value	/jointset/radioulnar_l/pro_sup_l/value	/jointset/radius_hand_l/wrist_flex_l/value	/jointset/radius_hand_l/wrist_dev_l/value	
          0.16051098	         -9.80740668	          4.58494421	        -16.49540854	          1.25290622	          0.95538726	          0.30775216	         -4.52707949	        -13.21809175	          6.50527400	        -47.75321713	        -28.11914025	        -13.48701001	         -9.02744282	         85.40074357	        -10.55006671	          0.93914842	       -112.48331608	         -9.09809967	        -27.36522882	         15.65902738	         -8.62453298	         -1.66446353	         11.07839986	         82.57192300	         -3.55279064	         -0.00685815	        113.82235050	         80.89794093	        -10.46890852	          8.02256520	        -75.00000000	        -17.33496299	         -0.04315750	         76.11354924	         82.70470436	        -30.72597056	          7.00197550	
          0.16115916	         -9.82142109	          4.59844476	        -16.48196437	          1.26038800	          0.95554350	          0.30787989	         -4.54015504	        -13.23382531	          6.58649471	        -48.17360841	        -28.24062327	        -13.49753023	         -8.88870838	         85.50178304	        -10.63521909	          0.90630959	       -111.81917478	         -9.36331375	        -27.29040049	         15.66093250	         -8.64716058	         -1.72961756	         11.06810382	         82.59840565	         -3.43686924	         -0.00000804	        113.93984310	         80.97137822	        -10.39011287	          8.00272538	        -74.99313725	        -17.20441829	         -0.00000460	         75.58228818	         82.49706419	        -30.75390877	          7.01812502	
          0.16320715	         -9.85430713	          4.64266844	        -16.42382467	          1.28398477	          0.95608482	          0.30828440	         -4.57524843	        -13.27217431	          6.84419383	        -49.52307908	        -28.63927258	        -13.42052133	         -8.45602527	         85.75120325	        -10.88852264	          0.77912056	       -109.66618471	        -10.20926238	        -27.02593411	         15.66466922	         -8.73887604	         -1.94920625	         11.02049081	         82.62109730	         -3.11399653	         -0.00000240	        114.38502052	         81.21255248	        -10.15048431	          7.93945986	        -74.94395314	        -16.75719306	         -0.00000857	         73.94768683	         81.83090430	        -30.83729895	          7.06470662	
          0.16469142	         -9.87044438	          4.67745723	        -16.36864510	          1.30104680	          0.95651766	          0.30857859	         -4.59097425	        -13.29072075	          7.03042071	        -50.52047644	        -28.92660889	        -13.27423209	         -8.15576533	         85.86848902	        -11.05793868	          0.66394088	       -108.05527288	        -10.82952843	        -26.81469084	         15.66588135	         -8.82026490	         -2.12116180	         10.97405995	         82.57917461	         -2.92119591	         -0.01163300	        114.77719537	         81.39594616	         -9.98631606	          7.89416035	        -74.88602499	        -16.40270531	         -0.13369142	         72.81569113	         81.33917239	        -30.89317973	          7.09516705	
          0.16469142	         -9.87044438	          4.67745723	        -16.36864510	          1.30104680	          0.95651766	          0.30857859	         -4.59097425	        -13.29072075	          7.03042071	        -50.52047644	        -28.92660889	        -13.27423209	         -8.15576533	         85.86848902	        -11.05793868	          0.66394088	       -108.05527288	        -10.82952843	        -26.81469084	         15.66588135	         -8.82026490	         -2.12116180	         10.97405995	         82.57917461	         -2.92119591	         -0.01163300	        114.77719537	         81.39594616	         -9.98631606	          7.89416035	        -74.88602499	        -16.40270531	         -0.13369142	         72.81569113	         81.33917239	        -30.89317973	          7.09516705	
          0.16533960	         -9.87604654	          4.69366658	        -16.34160708	          1.30848768	          0.95671638	          0.30870742	         -4.59457067	        -13.29683292	          7.11117280	        -50.96087755	        -29.04778422	        -13.19072861	         -8.02996262	         85.90347848	        -11.12839000	          0.60737513	       -107.33889919	        -11.10191588	        -26.71880103	         15.66621668	         -8.85887858	         -2.19961715	         10.95124333	         82.54541064	         -2.84786158	         -0.01731529	        114.96637029	         81.47799395	         -9.91720358	          7.87418669	        -74.85596209	        -16.24036626	         -0.22897092	         72.33829631	         81.12278022	        -30.91638176	          7.10765982	
          0.16738759	         -9.89410062	          4.75035946	        -16.24746494	          1.33195695	          0.95737504	          0.30911646	         -4.58521210	        -13.30943476	          7.36288684	        -52.37173059	        -29.38689454	        -12.87737396	         -7.65876476	         85.95540631	        -11.33929657	          0.40343742	       -105.02442778	        -11.97120563	        -26.41078127	         15.66639546	         -8.98561200	         -2.45972494	         10.87369977	         82.37524811	         -2.65954663	         -0.03316932	        115.63792807	         81.74485561	         -9.70950170	          7.81102532	        -74.74083518	        -15.71306733	         -0.64306602	         70.90337213	         80.44951632	        -30.98450366	          7.13943531	
          0.16887186	         -9.90636119	          4.79645480	        -16.17377197	          1.34892978	          0.95788290	          0.30941543	         -4.56017788	        -13.31393765	          7.54041821	        -53.41035491	        -29.58120020	        -12.63705262	         -7.41624172	         85.93594450	        -11.48264348	          0.23161210	       -103.30148126	        -12.60467379	        -26.18317366	         15.66623145	         -9.08277599	         -2.65928601	         10.81573192	         82.19225765	         -2.56426606	         -0.04309756	        116.18636029	         81.94544962	         -9.56954046	          7.76531782	        -74.63612561	        -15.32861256	         -1.02293474	         69.93315687	         79.98613867	        -31.02853687	          7.15146255	
          0.16887186	         -9.90636119	          4.79645480	        -16.17377197	          1.34892978	          0.95788290	          0.30941543	         -4.56017788	        -13.31393765	          7.54041821	        -53.41035491	        -29.58120020	        -12.63705262	         -7.41624172	         85.93594450	        -11.48264348	          0.23161210	       -103.30148126	        -12.60467379	        -26.18317366	         15.66623145	         -9.08277599	         -2.65928601	         10.81573192	         82.19225765	         -2.56426606	         -0.04309756	        116.18636029	         81.94544962	         -9.56954046	          7.76531782	        -74.63612561	        -15.32861256	         -1.02293474	         69.93315687	         79.98613867	        -31.02853687	          7.15146255	
          0.16952004	         -9.91101706	          4.81770450	        -16.14082056	          1.35633298	          0.95811327	          0.30954676	         -4.54507741	        -13.31500741	          7.61625126	        -53.86750087	        -29.65039913	        -12.53673332	         -7.31781039	         85.91188236	        -11.54309932	          0.15035187	       -102.53793908	        -12.88084643	        -26.08256257	         15.66624837	         -9.12706387	         -2.74907632	         10.79073422	         82.09687237	         -2.53351879	         -0.04680695	        116.43967336	         82.03485443	         -9.51130151	          7.74534990	        -74.58426429	        -15.16278038	         -1.20330137	         69.52784903	         79.79329761	        -31.04627073	          7.15311229	
          0.17156803	         -9.91562777	          4.88961321	        -16.03596630	          1.37969438	          0.95888413	          0.30996525	         -4.48961121	        -13.31916331	          7.84571018	        -55.32175954	        -29.80861964	        -12.27958045	         -7.03796154	         85.76537682	        -11.72534043	         -0.13294454	       -100.08579598	        -13.73939850	        -25.75281203	         15.66647969	         -9.28166490	         -3.04569531	         10.71499851	         81.73484086	         -2.47976158	         -0.06264823	        117.28362203	         82.32323304	         -9.33916416	          7.68221748	        -74.39590605	        -14.64794747	         -1.83350502	         68.32069077	         79.22011327	        -31.09638263	          7.14565690	
          0.17305230	         -9.90287435	          4.94396512	        -15.96023403	          1.39660334	          0.95949157	          0.31027118	         -4.45092728	        -13.32346578	          8.00082405	        -56.38061148	        -29.87587499	        -12.16758090	         -6.86840612	         85.58610432	        -11.84826993	         -0.36186363	        -98.27665563	        -14.33844775	        -25.49691790	         15.66611012	         -9.41489788	         -3.27184446	         10.66390135	         81.41620548	         -2.48200102	         -0.08105315	        117.92627280	         82.53684803	         -9.22586701	          7.63649016	        -74.23574665	        -14.28434680	         -2.34750862	         67.51554784	         78.83910637	        -31.12707060	          7.12920925	
